<?xml version="1.0" encoding="utf-8"?>
<!-- Generator: Adobe Illustrator 27.5.0, SVG Export Plug-In . SVG Version: 6.00 Build 0)  -->
<svg version="1.1" id="Capa_2_00000174583160797886262930000000574717726575293078_"
	 xmlns="http://www.w3.org/2000/svg" xmlns:xlink="http://www.w3.org/1999/xlink" x="0px" y="0px" viewBox="0 0 2122 2122"
	 style="enable-background:new 0 0 2122 2122;" xml:space="preserve">
<polygon style="fill:#2D75BB;" points="1323.151,209.836 816.243,541.268 815.722,541.609 832.433,567.17 858.509,550.121 
	1028.867,685.063 945.262,739.731 959.239,761.115 1466.147,429.68 1466.669,429.339 "/>
<polygon style="fill:#4A1946;" points="1222.34,1697.986 1746.598,1550.646 1743.899,1541.04 1639.406,1169.245 1115.149,1316.586 
	592.99,1463.337 700.18,1844.736 "/>
<polygon style="fill:#2D75BB;" points="1584.569,713.531 1584.403,712.93 992.263,879.348 991.664,879.516 1000.443,910.742 
	1000.609,911.343 1089.944,886.237 1079.546,1103.319 1056.389,1109.825 1114.547,1316.753 1114.713,1317.355 1638.971,1170.015 
	1743.302,1541.208 1745.83,1550.215 1222.172,1697.386 1221.573,1697.554 1234.777,1744.54 1234.942,1745.142 1827.082,1578.723 
	1827.682,1578.555 "/>
<path style="fill:#2D75BB;" d="M1626.196,1193.688l-0.166-0.602l-505.651,142.112l-0.6,0.168l20.375,72.499l0.166,0.595
	l386.723-104.071c4.979-1.328,10.124,1.617,11.464,6.604c0.653,2.412,0.322,4.933-0.926,7.099c-1.247,2.166-3.259,3.715-5.671,4.365
	l-385.919,103.851l-0.609,0.163l19.303,68.668l0.166,0.594l386.723-104.07c2.417-0.648,4.935-0.319,7.098,0.928
	c2.168,1.247,3.717,3.262,4.365,5.676c0.653,2.412,0.322,4.933-0.926,7.099c-1.247,2.165-3.264,3.715-5.676,4.366l-385.914,103.851
	l-0.609,0.163l18.075,64.305l0.166,0.594l386.718-104.071c2.417-0.65,4.94-0.321,7.099,0.926c2.168,1.247,3.717,3.264,4.365,5.679
	c0.653,2.412,0.321,4.933-0.926,7.098c-1.247,2.166-3.264,3.715-5.676,4.365l-385.91,103.851l-0.609,0.163l23.123,82.285
	l0.166,0.602l505.651-142.111l0.599-0.168L1626.196,1193.688z"/>
<polygon style="fill:#50A4DB;" points="1222.942,1697.817 1222.776,1697.215 700.614,1843.966 593.759,1463.769 1115.317,1317.184 
	1115.917,1317.016 1057.758,1110.088 1057.593,1109.487 970.977,1133.83 981.374,916.751 1001.812,911.005 993.033,879.779 
	992.867,879.177 617.184,984.763 959.761,760.773 960.282,760.433 946.304,739.049 934.484,746.776 764.122,611.836 
	833.476,566.489 816.765,540.927 294.066,882.683 293.545,883.024 400.263,1046.244 643.245,1910.789 643.411,1911.391 
	1235.546,1744.972 1236.146,1744.804 "/>
<path style="fill:#FFDA00;" d="M538.466,1019.721c-4.302-15.313-14.31-28.034-28.18-35.82c-13.876-7.785-29.954-9.712-45.262-5.396
	c-15.313,4.302-28.034,14.312-35.82,28.182c-7.785,13.871-9.7,29.944-5.394,45.257c4.303,15.315,14.31,28.036,28.181,35.82
	c9.028,5.067,18.982,7.647,29.057,7.647c5.408,0,10.855-0.745,16.205-2.249C528.858,1084.278,547.348,1051.331,538.466,1019.721z"/>
<g>
	<path style="fill:#4A1946;" d="M536.843,1281.06l46.982,167.15l526.932-148.09l-46.982-167.152L536.843,1281.06z M597.633,1423.6
		l-36.176-128.728l488.511-137.296l36.175,128.73L597.633,1423.6z"/>
	<path style="fill:#4A1946;" d="M1597.421,982.99l-518.966,145.854l46.972,167.15l518.976-145.851L1597.421,982.99z
		 M1103.069,1142.656l480.545-135.057l36.175,128.729l-480.545,135.057L1103.069,1142.656z"/>
</g>
<polygon style="fill:#4A1946;" points="659.83,1222.573 670.314,1003.728 670.353,1002.863 559.688,1033.967 559.26,1034.086 
	548.775,1252.931 548.736,1253.796 659.401,1222.692 "/>
<polygon style="fill:#4A1946;" points="768.94,975.158 758.455,1194.003 758.417,1194.868 869.081,1163.762 869.51,1163.643 
	880,944.798 880.039,943.933 769.369,975.039 "/>
<polygon style="fill:#4A1946;" points="1396.218,446.367 1396.944,445.895 1224.521,309.32 1128.657,372.002 1127.931,372.474 
	1300.36,509.044 "/>
<polygon style="fill:#4A1946;" points="1213.924,565.558 1214.65,565.086 1042.226,428.511 946.358,491.193 945.632,491.665 
	1118.065,628.235 "/>
<polygon style="fill:#4A1946;" points="1030.275,685.633 1031.001,685.161 858.577,548.586 762.714,611.266 761.988,611.739 
	934.417,748.311 "/>
<polygon style="fill:#4A1946;" points="849.335,803.94 850.06,803.467 677.632,666.893 581.769,729.575 581.043,730.047 
	753.471,866.617 "/>
<polygon style="fill:#4A1946;" points="657.584,929.311 658.31,928.839 485.881,792.267 390.017,854.946 389.292,855.419 
	561.72,991.988 "/>
<path style="fill:#4A1946;" d="M474.256,1011.353c-6.539,1.836-11.971,6.112-15.294,12.034c-3.327,5.924-4.146,12.787-2.304,19.325
	c1.837,6.539,6.109,11.971,12.034,15.296c3.854,2.163,8.103,3.267,12.405,3.267c2.309,0,4.638-0.319,6.923-0.962
	c6.538-1.837,11.971-6.112,15.293-12.034c3.328-5.924,4.146-12.787,2.304-19.325
	C501.827,1015.455,487.752,1007.545,474.256,1011.353z"/>
<polygon style="fill:#4A1946;" points="1000.872,909.974 980.175,915.792 969.69,1134.636 969.651,1135.501 1057.33,1110.856 
	1080.745,1104.278 1091.23,885.431 1091.269,884.566 "/>
<polygon style="fill:#4A1946;" points="1299.356,826.939 1299.395,826.074 1188.73,857.178 1188.301,857.297 1177.817,1076.142 
	1177.777,1077.007 1288.443,1045.903 1288.871,1045.784 "/>
<polygon style="fill:#4A1946;" points="1509.422,983.798 1519.911,764.954 1519.95,764.089 1409.28,795.192 1408.852,795.312 
	1398.372,1014.157 1398.333,1015.021 1508.993,983.918 "/>
<path style="fill:#50A4DB;" d="M1194.587,1596.928l-0.166-0.594l-387.02,104.151c-2.417,0.646-4.941,0.319-7.099-0.929
	c-2.168-1.247-3.717-3.262-4.365-5.676c-1.34-4.979,1.622-10.122,6.602-11.464l386.211-103.932l0.609-0.163l-18.075-64.305
	l-0.166-0.594l-387.016,104.151c-4.994,1.33-10.129-1.62-11.464-6.604c-0.653-2.412-0.322-4.933,0.925-7.099
	c1.247-2.165,3.26-3.715,5.672-4.365l386.211-103.932l0.609-0.163l-19.303-68.668l-0.166-0.594L759.571,1530.3
	c-4.965,1.325-10.12-1.62-11.459-6.604c-1.345-4.979,1.617-10.122,6.596-11.464l386.207-103.932l0.609-0.163l-20.375-72.507
	l-0.166-0.602l-503.551,141.522l-0.599,0.168l96.56,343.576l0.166,0.602l503.551-141.522l0.6-0.168L1194.587,1596.928z"/>
</svg>
