<?xml version="1.0" encoding="utf-8"?>
<!-- Generator: Adobe Illustrator 27.5.0, SVG Export Plug-In . SVG Version: 6.00 Build 0)  -->
<svg version="1.1" id="Layer_2" xmlns="http://www.w3.org/2000/svg" xmlns:xlink="http://www.w3.org/1999/xlink" x="0px" y="0px"
	 viewBox="0 0 190.009 135.828" style="enable-background:new 0 0 190.009 135.828;" xml:space="preserve">
<g>
	<path style="fill:#999999;" d="M110.44,19.217c-0.719-0.515-1.547-0.924-2.466-1.218c-0.003-0.002-0.006-0.004-0.009-0.007
		c-0.805-0.576-1.746-1.02-2.794-1.317c-0.198-0.057-0.399-0.107-0.608-0.153c-0.232-0.051-0.464-0.095-0.705-0.131
		c-0.125-0.019-0.253-0.033-0.383-0.046l-0.084-0.009c-0.286-0.03-0.573-0.058-0.871-0.068c-0.017,0-0.056-0.001-0.058-0.002
		c-0.524-0.015-1.078,0.005-1.702,0.061c0,0-0.498,0.053-0.626,0.07c-0.45,0.058-0.907,0.134-1.376,0.231
		c0,0-0.026,0.005-0.038,0.008c-12.831,2.688-32.706,20.214-49.47,43.629c-0.611,0.854-1.209,1.706-1.804,2.562l-0.539,0.784
		c-0.419,0.611-0.833,1.219-1.242,1.827l-0.564,0.841c-0.457,0.689-0.908,1.376-1.354,2.064l-0.327,0.502
		c-0.526,0.815-1.039,1.628-1.544,2.438l-0.583,0.946c-0.319,0.52-0.637,1.039-0.95,1.559l-0.637,1.064
		c-0.297,0.498-0.587,0.995-0.878,1.495l-0.59,1.015c-0.423,0.738-0.837,1.472-1.245,2.208l-0.386,0.703l-0.899,1.662L35.05,83.18
		l-0.556,1.076c-0.737,1.433-1.426,2.817-2.068,4.161l-0.683,1.454c-0.232,0.501-0.458,0.997-0.678,1.49l-0.598,1.342l-0.38,0.88
		l-0.49,1.17c-0.175,0.421-0.348,0.842-0.537,1.315c-0.012,0.026-0.024,0.054-0.035,0.081l-0.529,1.35
		c-0.107,0.272-0.213,0.545-0.314,0.815c-0.002,0.005-0.006,0.016-0.006,0.016c-0.245,0.651-0.481,1.295-0.707,1.932
		c-0.001,0.003-0.19,0.549-0.281,0.816l-0.44,1.306c-0.11,0.339-0.217,0.673-0.323,1.012c-0.094,0.3-0.333,1.093-0.333,1.093
		c-0.095,0.316-0.19,0.631-0.278,0.942c-0.124,0.436-0.241,0.866-0.353,1.293c-0.005,0.015-0.009,0.029-0.012,0.044
		c-0.095,0.36-0.187,0.719-0.275,1.073c-0.002,0.007-0.005,0.02-0.005,0.02c-0.111,0.452-0.22,0.9-0.32,1.343
		c-0.07,0.311-0.132,0.616-0.193,0.92c0,0-0.155,0.763-0.196,0.973c0,0.002-0.143,0.78-0.145,0.792
		c-0.066,0.389-0.125,0.77-0.182,1.148c-0.003,0.018-0.005,0.037-0.007,0.055c-0.138,0.942-0.243,1.861-0.31,2.733
		c-0.002,0.016-0.003,0.032-0.004,0.048c-0.028,0.372-0.052,0.74-0.068,1.1c-0.001,0.008-0.021,0.643-0.021,0.669
		c-0.007,0.341-0.008,0.675-0.004,1.009c0.012,0.79,0.049,1.487,0.115,2.127c0.046,0.454,0.108,0.892,0.182,1.314
		c0.02,0.119,0.088,0.451,0.088,0.451c0.063,0.318,0.133,0.628,0.213,0.931c0.04,0.151,0.08,0.301,0.123,0.446
		c0.096,0.327,0.204,0.643,0.319,0.947c0.23,0.61,0.505,1.19,0.816,1.727c0.163,0.279,0.335,0.548,0.52,0.805
		c0.189,0.263,0.397,0.505,0.648,0.79c0.062,0.074,0.125,0.146,0.234,0.26c0.071,0.075,0.142,0.15,0.217,0.222
		c0.329,0.315,0.64,0.576,0.951,0.799c0.72,0.515,1.548,0.924,2.465,1.218c0.003,0.002,0.006,0.005,0.01,0.007
		c2.052,1.47,4.675,2.011,7.795,1.609c0,0,0,0,0.001,0c4.273-0.551,9.402-2.848,15.18-6.789
		c11.176-6.911,24.204-20.315,35.744-36.774c2.682-3.825,5.254-7.79,7.63-11.761c7.922-12.777,13.722-25.449,16.333-35.682
		C116.131,30.218,115.14,22.583,110.44,19.217z"/>
	<g>
		<g>
			<path style="fill:#808080;" d="M107.763,24.581c-8.959-6.55-32.34,11.129-52.223,39.489
				c-19.883,28.359-28.739,56.659-19.78,63.21c8.959,6.55,32.34-11.129,52.223-39.489C107.866,59.431,116.721,31.131,107.763,24.581
				z M49.62,113.579c-3.381,4.823-7.357,7.829-8.881,6.715c-1.523-1.114-0.017-5.926,3.364-10.749
				c3.381-4.823,7.357-7.829,8.881-6.715C54.508,103.944,53.001,108.757,49.62,113.579z M59.04,66.445
				c2.614-3.729,5.688-6.053,6.866-5.192c1.178,0.861,0.014,4.582-2.601,8.311c-2.614,3.729-5.688,6.053-6.866,5.192
				C55.261,73.895,56.425,70.174,59.04,66.445z M60.233,92.491c-2.872-2.1-0.033-11.172,6.341-20.264s13.87-14.759,16.742-12.659
				c2.872,2.1,0.033,11.172-6.341,20.264C70.6,88.923,63.105,94.591,60.233,92.491z M84.083,85.929
				c-2.614,3.729-5.688,6.053-6.866,5.192c-1.178-0.861-0.014-4.582,2.601-8.311c2.614-3.729,5.688-6.053,6.866-5.192
				C87.862,78.479,86.698,82.2,84.083,85.929z M100.538,40.838c-3.381,4.823-7.357,7.829-8.881,6.715
				c-1.523-1.114-0.018-5.926,3.364-10.749c3.381-4.823,7.357-7.829,8.881-6.715C105.425,31.202,103.919,36.015,100.538,40.838z"/>
		</g>
		<g>
			<path style="fill:#B3B3B3;" d="M109.475,20.574c-9.638-6.901-34.887,11.854-56.394,41.891
				c-21.507,30.037-31.128,59.981-21.49,66.883c9.638,6.901,34.887-11.854,56.394-41.891
				C109.492,57.42,119.114,27.475,109.475,20.574z M46.568,114.825c-3.657,5.108-7.951,8.297-9.59,7.124
				c-1.639-1.174-0.003-6.266,3.654-11.373c3.657-5.108,7.951-8.297,9.59-7.124C51.861,104.625,50.225,109.717,46.568,114.825z
				 M56.847,64.967c2.828-3.949,6.147-6.415,7.415-5.508c1.267,0.907,0.002,4.845-2.826,8.794c-2.828,3.949-6.148,6.415-7.415,5.508
				C52.754,72.854,54.019,68.916,56.847,64.967z M58.063,92.501c-3.09-2.212-0.006-11.812,6.889-21.441
				c6.895-9.629,14.989-15.642,18.079-13.429c3.09,2.212,0.005,11.812-6.889,21.441C69.247,88.701,61.153,94.714,58.063,92.501z
				 M83.787,85.499c-2.828,3.949-6.148,6.415-7.415,5.508c-1.267-0.907-0.002-4.844,2.826-8.794
				c2.828-3.949,6.147-6.415,7.415-5.508C87.88,77.612,86.615,81.549,83.787,85.499z M101.644,37.781
				c-3.657,5.108-7.951,8.297-9.59,7.124c-1.639-1.174-0.003-6.266,3.654-11.374c3.657-5.108,7.951-8.297,9.59-7.124
				C106.937,27.581,105.301,32.673,101.644,37.781z"/>
		</g>
		<g>
			<path style="fill:#E6E6E6;" d="M107.001,19.349c-9.639-6.901-34.887,11.854-56.394,41.891
				c-21.507,30.037-31.128,59.981-21.49,66.883c9.638,6.901,34.887-11.854,56.394-41.891S116.639,26.25,107.001,19.349z
				 M44.093,113.6c-3.657,5.108-7.951,8.297-9.59,7.124c-1.639-1.174-0.003-6.266,3.654-11.374c3.657-5.108,7.951-8.297,9.59-7.124
				C49.386,103.4,47.75,108.492,44.093,113.6z M54.372,63.742c2.828-3.949,6.147-6.415,7.415-5.508
				c1.267,0.907,0.002,4.845-2.826,8.794c-2.828,3.949-6.148,6.415-7.415,5.508C50.279,71.628,51.544,67.691,54.372,63.742z
				 M55.588,91.276c-3.09-2.212-0.005-11.812,6.889-21.441c6.895-9.629,14.989-15.642,18.079-13.429
				c3.09,2.212,0.005,11.812-6.889,21.441C66.772,87.476,58.678,93.488,55.588,91.276z M81.313,84.273
				c-2.828,3.949-6.148,6.415-7.415,5.508c-1.267-0.907-0.002-4.845,2.826-8.794c2.828-3.949,6.147-6.415,7.415-5.508
				C85.406,76.387,84.141,80.324,81.313,84.273z M99.169,36.556c-3.657,5.108-7.951,8.297-9.59,7.124
				c-1.639-1.174-0.003-6.266,3.655-11.374c3.657-5.108,7.951-8.297,9.59-7.124C104.463,26.356,102.826,31.448,99.169,36.556z"/>
		</g>
		<path style="opacity:0.3;fill:#E6E6E6;" d="M107.001,19.349c-0.277-0.198-0.57-0.37-0.873-0.526
			c-0.113-0.058-0.233-0.105-0.349-0.158c-0.191-0.087-0.385-0.169-0.585-0.24c-0.156-0.055-0.316-0.102-0.478-0.148
			c-0.165-0.047-0.332-0.088-0.503-0.125c-0.196-0.042-0.392-0.082-0.595-0.111c-0.129-0.019-0.262-0.031-0.395-0.045
			c-0.248-0.026-0.495-0.052-0.753-0.06c-0.002,0-0.004,0-0.007,0c-1.047-0.032-2.174,0.08-3.37,0.328c0,0,0,0,0,0
			c1.956-0.089,3.548,0.223,4.639,1.005c7.411,5.306,0.013,28.33-16.523,51.425c-1.137,1.588-2.289,3.131-3.448,4.634
			c0.138,0.029,0.268,0.074,0.377,0.152c1.267,0.907,0.002,4.845-2.826,8.794c-2.828,3.949-6.148,6.415-7.415,5.508
			c-0.546-0.391-0.62-1.348-0.302-2.624c-9.68,10.049-18.998,16.33-25.22,16.807c-0.028,2.194-1.613,5.907-4.283,9.636
			c-3.657,5.108-7.951,8.297-9.59,7.124c-1.639-1.174-0.003-6.266,3.654-11.374c1.997-2.79,4.182-5,6.023-6.247
			c-0.11-0.067-0.226-0.125-0.331-0.2c-4.181-2.993-7.018-11.191-5.731-21.913c-0.387,0.704-0.765,1.404-1.136,2.101
			c-0.236,0.443-0.462,0.882-0.691,1.323c-0.182,0.351-0.365,0.701-0.543,1.05c-0.223,0.438-0.443,0.873-0.659,1.308
			c-0.172,0.346-0.342,0.689-0.51,1.033c-0.211,0.431-0.422,0.862-0.626,1.289c-0.17,0.356-0.333,0.708-0.498,1.061
			c-0.337,0.721-0.665,1.437-0.982,2.147c-0.16,0.357-0.321,0.716-0.476,1.07c-0.176,0.403-0.344,0.801-0.513,1.2
			c-0.146,0.346-0.292,0.69-0.433,1.033c-0.161,0.39-0.321,0.779-0.475,1.165c-0.142,0.355-0.279,0.707-0.416,1.059
			c-0.142,0.365-0.287,0.732-0.423,1.093c-0.241,0.64-0.473,1.274-0.694,1.901c-0.118,0.335-0.228,0.663-0.341,0.994
			c-0.124,0.364-0.248,0.728-0.365,1.087c-0.109,0.333-0.214,0.663-0.317,0.992c-0.113,0.359-0.221,0.714-0.326,1.067
			c-0.093,0.31-0.186,0.621-0.274,0.927c-0.125,0.44-0.242,0.872-0.356,1.303c-0.095,0.36-0.187,0.717-0.275,1.071
			c-0.109,0.44-0.215,0.877-0.311,1.306c-0.059,0.263-0.112,0.521-0.166,0.78c-0.075,0.358-0.147,0.713-0.213,1.063
			c-0.048,0.255-0.095,0.509-0.139,0.76c-0.065,0.376-0.122,0.745-0.176,1.111c-0.03,0.204-0.064,0.411-0.091,0.612
			c-0.072,0.538-0.131,1.066-0.179,1.582c-0.016,0.177-0.025,0.347-0.039,0.522c-0.027,0.362-0.051,0.719-0.066,1.069
			c-0.009,0.198-0.014,0.392-0.018,0.586c-0.008,0.331-0.008,0.656-0.004,0.975c0.002,0.172,0.003,0.346,0.009,0.515
			c0.015,0.44,0.04,0.87,0.079,1.286c0.006,0.06,0.012,0.12,0.018,0.18c0.043,0.415,0.1,0.815,0.167,1.204
			c0.024,0.139,0.053,0.272,0.08,0.408c0.057,0.284,0.12,0.561,0.19,0.83c0.035,0.135,0.071,0.269,0.11,0.4
			c0.085,0.286,0.179,0.561,0.28,0.829c0.034,0.089,0.063,0.183,0.099,0.27c0.141,0.344,0.296,0.673,0.466,0.985
			c0.041,0.076,0.089,0.146,0.132,0.22c0.136,0.234,0.28,0.46,0.434,0.674c0.067,0.093,0.137,0.183,0.208,0.273
			c0.15,0.191,0.309,0.373,0.476,0.546c0.072,0.075,0.141,0.152,0.216,0.224c0.243,0.232,0.496,0.452,0.769,0.648
			c9.638,6.901,34.887-11.854,56.394-41.891S116.639,26.25,107.001,19.349z"/>
		<path style="opacity:0.45;fill:#E6E6E6;" d="M51.098,64.025c22.809-29.06,48.86-46.685,58.185-39.365
			c0.457,0.358,0.851,0.786,1.211,1.248c-0.464-2.954-1.603-5.205-3.494-6.558c-9.639-6.901-34.887,11.854-56.394,41.891
			c-8.189,11.437-14.649,22.857-18.984,33C36.355,84.794,42.967,74.385,51.098,64.025z"/>
	</g>
	<path style="opacity:0.68;fill:#E6E6E6;" d="M105.806,21.827c-0.407-0.292-0.854-0.517-1.32-0.71
		c-0.237-0.135-0.485-0.253-0.74-0.359c-0.237-0.135-0.484-0.253-0.739-0.359c-0.237-0.135-0.485-0.253-0.74-0.359
		c-0.238-0.135-0.484-0.253-0.739-0.358c-0.237-0.135-0.484-0.254-0.739-0.359c-0.238-0.135-0.485-0.253-0.74-0.359
		c-0.237-0.135-0.485-0.253-0.739-0.359c-0.237-0.135-0.484-0.253-0.739-0.359c-0.238-0.135-0.485-0.253-0.74-0.359
		c-0.237-0.135-0.484-0.253-0.739-0.358c-0.238-0.135-0.485-0.254-0.74-0.359c-0.237-0.135-0.485-0.253-0.739-0.359
		c-0.146-0.083-0.301-0.149-0.454-0.22c-0.025-0.042-0.045-0.086-0.071-0.128l-0.083,0.052c-0.045-0.019-0.086-0.045-0.131-0.063
		c-0.237-0.135-0.484-0.253-0.739-0.359c-0.238-0.135-0.485-0.253-0.74-0.359c-0.237-0.135-0.485-0.253-0.74-0.359
		c-0.237-0.135-0.484-0.253-0.739-0.359c-0.238-0.135-0.484-0.253-0.739-0.359c-0.237-0.135-0.485-0.253-0.74-0.359
		c-0.237-0.135-0.484-0.253-0.739-0.359c-0.237-0.135-0.485-0.253-0.74-0.359c-9.194-5.224-31.684,11.76-50.906,38.649
		C18.42,79.696,9.64,107.077,18.442,113.39c0.407,0.292,0.854,0.517,1.32,0.71c0.237,0.135,0.484,0.253,0.739,0.358
		c0.237,0.135,0.485,0.253,0.739,0.359c0.238,0.135,0.485,0.253,0.74,0.359c0.237,0.135,0.484,0.253,0.739,0.359
		c0.237,0.135,0.485,0.253,0.74,0.359c0.237,0.135,0.484,0.253,0.739,0.359c0.238,0.135,0.485,0.254,0.74,0.359
		c0.237,0.135,0.484,0.253,0.739,0.359c0.237,0.135,0.485,0.253,0.74,0.359c0.237,0.135,0.484,0.253,0.739,0.359
		c0.238,0.135,0.485,0.253,0.739,0.359c0.237,0.135,0.485,0.253,0.739,0.359c0.237,0.135,0.485,0.253,0.74,0.359
		c0.237,0.135,0.484,0.253,0.739,0.359c0.237,0.135,0.484,0.253,0.739,0.359c0.237,0.135,0.484,0.253,0.739,0.359
		c0.238,0.135,0.485,0.253,0.74,0.359c0.237,0.135,0.484,0.253,0.739,0.359c0.238,0.135,0.485,0.253,0.74,0.359
		c0.238,0.135,0.485,0.253,0.74,0.359c0.238,0.135,0.485,0.253,0.739,0.359c9.195,5.224,31.684-11.76,50.906-38.649
		C105.828,55.521,114.608,28.14,105.806,21.827z"/>
	<g>
		<path style="fill:#333333;" d="M104.117,21.685c-0.403-0.288-0.845-0.511-1.307-0.701c-0.235-0.133-0.48-0.25-0.732-0.355
			c-0.235-0.133-0.48-0.25-0.732-0.355c-0.235-0.133-0.48-0.25-0.733-0.355c-0.235-0.133-0.48-0.25-0.732-0.355
			c-0.235-0.133-0.48-0.25-0.732-0.355c-0.235-0.133-0.48-0.25-0.732-0.355c-0.235-0.133-0.48-0.25-0.732-0.355
			c-0.235-0.133-0.48-0.25-0.732-0.355c-0.235-0.133-0.48-0.25-0.732-0.355c-0.235-0.133-0.48-0.25-0.732-0.354
			c-0.235-0.133-0.48-0.251-0.732-0.355c-0.235-0.133-0.48-0.25-0.732-0.354c-0.235-0.133-0.48-0.251-0.733-0.355
			c-0.235-0.133-0.479-0.25-0.732-0.355c-0.235-0.133-0.48-0.25-0.732-0.355c-0.235-0.133-0.48-0.25-0.732-0.355
			c-0.235-0.133-0.48-0.25-0.732-0.355c-0.235-0.133-0.48-0.251-0.732-0.355c-0.235-0.133-0.48-0.25-0.732-0.355
			c-0.235-0.133-0.48-0.25-0.732-0.355c-0.235-0.133-0.48-0.251-0.732-0.355c-9.105-5.164-31.381,11.635-50.422,38.229
			c-19.449,27.163-28.15,54.242-19.434,60.483c0.403,0.288,0.846,0.511,1.307,0.701c0.235,0.133,0.48,0.25,0.732,0.355
			c0.235,0.133,0.48,0.25,0.732,0.355c0.235,0.133,0.48,0.25,0.733,0.355c0.235,0.133,0.48,0.25,0.732,0.355
			c0.235,0.133,0.48,0.25,0.732,0.355c0.235,0.133,0.48,0.25,0.732,0.355c0.235,0.133,0.48,0.25,0.733,0.355
			c0.235,0.133,0.479,0.25,0.732,0.354c0.235,0.133,0.48,0.251,0.733,0.355c0.235,0.133,0.48,0.25,0.732,0.355
			c0.235,0.133,0.48,0.25,0.732,0.355c0.235,0.133,0.48,0.25,0.732,0.355c0.235,0.133,0.48,0.251,0.733,0.355
			c0.235,0.133,0.479,0.25,0.732,0.354c0.235,0.133,0.48,0.25,0.732,0.355c0.235,0.133,0.48,0.25,0.732,0.355
			c0.235,0.133,0.48,0.25,0.733,0.355c0.235,0.133,0.48,0.25,0.732,0.354c0.235,0.133,0.48,0.251,0.732,0.355
			c0.235,0.133,0.48,0.25,0.732,0.355c0.235,0.133,0.48,0.25,0.732,0.355c9.105,5.164,31.381-11.635,50.423-38.229
			C104.132,55.005,112.833,27.926,104.117,21.685z"/>
		<g>
			<g>
				<path style="fill:#CCCCCC;" d="M102.728,25.866c-0.23-1.528-0.556-2.827-0.875-3.472l1.374-0.677
					c0.395,0.803,0.756,2.196,1.015,3.922L102.728,25.866z"/>
			</g>
			<g>
				<path style="fill:#CCCCCC;" d="M45.502,116.979l-0.741-1.34c2.02-1.117,4.194-2.517,6.462-4.162l0.899,1.24
					C49.803,114.398,47.576,115.832,45.502,116.979z M57.078,108.868l-0.976-1.181c1.902-1.571,3.855-3.291,5.806-5.113l1.045,1.12
					C60.979,105.536,59.002,107.277,57.078,108.868z M67.439,99.33l-1.09-1.076c1.8-1.823,3.586-3.721,5.311-5.643l1.139,1.023
					C71.059,95.574,69.255,97.49,67.439,99.33z M76.886,88.901l-1.179-0.978c1.695-2.041,3.305-4.088,4.787-6.085l1.229,0.913
					C80.225,84.77,78.598,86.839,76.886,88.901z M85.343,77.651l-1.264-0.865c1.463-2.138,2.888-4.319,4.236-6.484l1.3,0.81
					C88.256,73.295,86.819,75.495,85.343,77.651z M92.822,65.744l-1.33-0.761c1.307-2.285,2.542-4.577,3.67-6.814l1.368,0.69
					C95.39,61.12,94.142,63.436,92.822,65.744z M99.217,53.201l-1.401-0.62c1.094-2.468,2.057-4.879,2.864-7.168l1.444,0.509
					C101.304,48.248,100.326,50.697,99.217,53.201z M103.86,39.837l-1.503-0.298c0.48-2.417,0.736-4.97,0.763-7.589l1.531,0.015
					C104.624,34.679,104.358,37.328,103.86,39.837z"/>
			</g>
			<g>
				<path style="fill:#CCCCCC;" d="M36.327,120.383c-0.176,0.023-0.351,0.042-0.522,0.057l-0.136-1.526
					c1.082-0.097,2.279-0.361,3.562-0.783l0.479,1.455C38.516,119.98,37.381,120.247,36.327,120.383z"/>
			</g>
		</g>
		<g>
			<g>
				<path style="fill:#CCCCCC;" d="M93.432,20.476c-0.2-1.22-0.59-2.262-1.227-3.279l1.298-0.813
					c0.739,1.179,1.209,2.436,1.44,3.845L93.432,20.476z"/>
			</g>
			<g>
				<path style="fill:#CCCCCC;" d="M39.023,110.064l-0.866-1.263c1.799-1.234,3.745-2.772,5.784-4.573l1.014,1.148
					C42.87,107.218,40.874,108.795,39.023,110.064z M49.342,101.252l-1.08-1.087c1.647-1.635,3.372-3.445,5.128-5.379l1.134,1.03
					C52.751,97.769,51.007,99.598,49.342,101.252z M58.487,91.309l-1.166-0.994c1.556-1.825,3.151-3.758,4.74-5.745l1.196,0.957
					C61.659,87.527,60.053,89.472,58.487,91.309z M66.946,80.805l-1.218-0.93c1.491-1.952,2.987-3.964,4.447-5.98l1.241,0.898
					C69.948,76.821,68.445,78.844,66.946,80.805z M74.87,69.891l-1.265-0.862c1.401-2.057,2.767-4.152,4.059-6.227l1.3,0.81
					C77.661,65.704,76.284,67.817,74.87,69.891z M82.046,58.462l-1.329-0.763c1.256-2.187,2.447-4.384,3.542-6.532l1.364,0.696
					C84.518,54.032,83.314,56.253,82.046,58.462z M88.231,46.446l-1.396-0.631c1.06-2.344,2.007-4.65,2.817-6.856l1.438,0.528
					C90.267,41.728,89.305,44.069,88.231,46.446z M92.975,33.769l-1.468-0.437c0.842-2.825,1.411-5.166,1.739-7.158l1.512,0.249
					C94.419,28.479,93.836,30.882,92.975,33.769z"/>
			</g>
			<g>
				<path style="fill:#CCCCCC;" d="M29.826,114.174l-0.196-1.519c1.056-0.136,2.224-0.472,3.471-0.998l0.595,1.411
					C32.322,113.647,31.02,114.02,29.826,114.174z"/>
			</g>
		</g>
	</g>
	<g style="opacity:0.6;">
		<path style="fill:#333333;" d="M22.976,74.859c-8.987,18.015-11.587,32.957-5.398,37.388c0.403,0.288,0.846,0.511,1.307,0.701
			c0.235,0.133,0.48,0.25,0.732,0.355c0.235,0.133,0.48,0.25,0.732,0.355c0.235,0.133,0.48,0.25,0.733,0.355
			c0.235,0.133,0.48,0.25,0.732,0.355c0.235,0.133,0.48,0.25,0.732,0.355c0.235,0.133,0.48,0.25,0.732,0.355
			c0.235,0.133,0.48,0.25,0.733,0.355c0.235,0.133,0.479,0.25,0.732,0.354c0.235,0.133,0.48,0.251,0.733,0.355
			c0.235,0.133,0.48,0.25,0.732,0.355c0.235,0.133,0.48,0.25,0.732,0.355c0.235,0.133,0.48,0.25,0.732,0.355
			c0.235,0.133,0.48,0.251,0.733,0.355c0.235,0.133,0.479,0.25,0.732,0.354c0.235,0.133,0.48,0.25,0.732,0.355
			c0.235,0.133,0.48,0.25,0.732,0.355c0.235,0.133,0.48,0.25,0.733,0.355c0.235,0.133,0.48,0.25,0.732,0.354
			c0.235,0.133,0.48,0.251,0.732,0.355c0.235,0.133,0.48,0.25,0.732,0.355c0.235,0.133,0.48,0.25,0.732,0.355
			c8.373,4.749,27.881-9.083,45.773-32.017C41.074,127.53,27.534,96.064,22.976,74.859z"/>
	</g>
	<g>
		<path style="fill:#333333;" d="M145.023,81.637c-0.01,0.008-0.02,0.016-0.03,0.024C145.003,81.652,145.014,81.644,145.023,81.637
			c0.001-0.001,0.002-0.001,0.002-0.002C145.024,81.636,145.023,81.636,145.023,81.637z"/>
		<path style="fill:#333333;" d="M88.166,13.89c0.09,0.037,0.174,0.086,0.262,0.127c-2.542-1.961-4.428-3.416-4.428-3.416
			c0.123,0.675,0.212,1.356,0.281,2.04c1.172,0.086,2.232,0.373,3.152,0.894C87.686,13.639,87.931,13.757,88.166,13.89z"/>
		<path style="fill:#333333;" d="M95.846,64.549c-1.011-3.466-1.058-7.223,0.026-10.967c2.064-7.133,6.739-13.456,7.045-21.074
			c0.059-1.475,0.409-6.997-1.046-8.119c-0.001-0.001-8.151-6.289-13.442-10.372c-0.088-0.041-0.172-0.09-0.262-0.127
			c-0.235-0.133-0.48-0.251-0.732-0.355c-0.92-0.522-1.98-0.809-3.152-0.894c0.606,5.973-0.727,12.261-2.127,17.983
			c-1.509,6.167-4.31,12.135-4.516,18.517c-0.364,11.248-0.57,24.667,6.055,34.384c0.33-0.452,0.661-0.901,0.989-1.359
			C88.943,76.218,92.687,70.273,95.846,64.549z"/>
		<path style="fill:#333333;" d="M144.994,81.662c0,0,0.017-0.015,0.03-0.026c-0.01,0.008-0.021,0.016-0.031,0.024L144.994,81.662z"
			/>
	</g>
	
		<ellipse transform="matrix(0.5822 -0.8131 0.8131 0.5822 -29.2172 69.2744)" style="fill:#808080;" cx="52.793" cy="63.065" rx="60.49" ry="19.41"/>
	<g>
		<g>
			<path style="fill:#494848;" d="M184.557,61.48c-0.334-0.414-0.693-0.81-1.033-1.219c-0.786-0.944-1.571-1.89-2.357-2.834
				c-1.572-1.889-3.147-3.775-4.739-5.647c-0.645-0.759-1.275-1.478-2.346-1.511c-1.158-0.035-2.286,0.307-3.409,0.538
				c-2.361,0.486-4.721,1.003-7.024,1.717c-5.345,1.659-9.761,4.472-14.289,7.76c-5.965,4.331-12.818,10.593-19.469,13.981
				c-6.386,3.253-16.329,4.275-22.287,0.085c-7.197-5.062-10.475-13.578-8.032-22.018c2.064-7.133,6.739-13.456,7.045-21.074
				c0.059-1.475,0.409-6.997-1.046-8.119c-0.001-0.001-17.87-13.788-17.87-13.788c1.2,6.564-0.285,13.646-1.846,20.024
				c-1.509,6.167-4.31,12.135-4.516,18.517C80.95,59.923,80.74,74.438,88.876,84.25c0,0,0.672,0.884,2.02,2.133
				c0.048,0.045,0.097,0.09,0.146,0.134c5.459,4.979,21.311,15.268,48.274,0.166c1.452-0.758,2.871-1.617,4.259-2.538
				c0.027-0.017,0.054-0.033,0.081-0.05l-0.001-0.003c1.729-1.151,3.409-2.398,5.038-3.681c0.01-0.008,0.02-0.016,0.03-0.024
				c0.001,0,0.001-0.001,0.002-0.001c0,0-0.001,0.001-0.001,0.001c0.567-0.447,1.129-0.896,1.684-1.348
				c-0.097,0.075-0.186,0.144-0.275,0.214c2.953-2.412,5.83-4.926,9.143-6.868c2.921-1.712,6.055-3.026,9.169-4.338
				c3.216-1.355,6.514-2.518,9.869-3.48c1.804-0.517,3.644-0.899,5.422-1.505c0.503-0.106,1.008-0.211,1.517-0.305
				C185.33,62.756,184.628,61.568,184.557,61.48z"/>
			<path style="fill:#333333;" d="M148.694,80.412c0,0,0.017-0.015,0.03-0.025c-0.01,0.008-0.021,0.016-0.031,0.024L148.694,80.412z
				"/>
		</g>
		<g>
			<g>
				<path style="fill:#FFFFFF;" d="M117.725,91.971c-2.212,0.285-4.396,0.381-6.493,0.283l0.071-1.53
					c2.398,0.111,4.9-0.041,7.472-0.453l0.243,1.512C118.585,91.853,118.153,91.915,117.725,91.971z M125.079,90.374l-0.441-1.466
					c2.3-0.693,4.678-1.589,7.069-2.665l0.628,1.397C129.884,88.743,127.442,89.663,125.079,90.374z M105.03,91.368
					c-2.575-0.634-5.03-1.598-7.298-2.863l0.746-1.337c2.149,1.199,4.476,2.111,6.918,2.713L105.03,91.368z M137.865,84.861
					l-0.741-1.34l0.408-0.226c1.225-0.639,2.475-1.383,3.835-2.28l0.165-0.11c0.651-0.434,1.316-0.896,2.001-1.391l0.898,1.242
					c-0.702,0.507-1.382,0.979-2.049,1.424l-0.168,0.112c-1.408,0.928-2.703,1.698-3.961,2.355L137.865,84.861z M92.622,84.848
					l-0.149-0.138c-1.173-1.085-1.772-1.857-1.777-1.864l-0.059-0.073c-1.04-1.255-1.983-2.672-2.796-4.203l1.352-0.718
					c0.764,1.439,1.649,2.769,2.63,3.953l0.081,0.1c0.013,0.017,0.552,0.703,1.609,1.681l0.113,0.105L92.622,84.848z
					 M149.297,76.967l-0.973-1.183l0.705-0.581c1.704-1.406,3.461-2.856,5.349-4.197l0.887,1.249
					c-1.842,1.308-3.577,2.74-5.255,4.125L149.297,76.967z M160.409,69.148l-0.698-1.364c2.358-1.206,4.733-2.208,7.03-3.176
					l0.595,1.411C165.065,66.978,162.717,67.967,160.409,69.148z M173.007,63.837l-0.502-1.447c1.576-0.546,3.176-1.052,4.755-1.504
					c0.711-0.204,1.427-0.388,2.142-0.571l0.499-0.128l0.384,1.483l-0.502,0.129c-0.702,0.18-1.404,0.361-2.101,0.561
					C176.129,62.803,174.556,63.3,173.007,63.837z M85.502,72.754c-0.634-2.144-1.121-4.528-1.45-7.083l-0.068-0.548l1.522-0.177
					l0.065,0.53c0.318,2.475,0.79,4.778,1.4,6.845L85.502,72.754z M85.063,58.898l-1.53,0.051c-0.075-2.261-0.074-4.637,0.004-7.704
					l1.531,0.039C84.991,54.32,84.989,56.669,85.063,58.898z M85.431,45.271l-1.513-0.235c0.405-2.606,1.201-5.252,1.915-7.527
					l1.462,0.459C86.597,40.191,85.82,42.77,85.431,45.271z M89.1,32.089l-1.475-0.412c0.163-0.582,0.318-1.168,0.462-1.756
					c0.375-1.532,0.858-3.559,1.267-5.642l1.503,0.295c-0.414,2.114-0.902,4.163-1.282,5.711
					C89.426,30.89,89.266,31.491,89.1,32.089z M91.771,18.441l-1.525-0.144c0.078-0.822,0.132-1.638,0.161-2.426l1.531,0.057
					C91.907,16.745,91.851,17.59,91.771,18.441z"/>
			</g>
			<g>
				<path style="fill:#FFFFFF;" d="M121.632,80.688c-1.291,0.166-2.579,0.254-3.827,0.259l-0.006-1.532
					c1.187-0.005,2.418-0.076,3.647-0.248c1.261-0.163,2.52-0.403,3.743-0.716l0.379,1.484c-1.282,0.327-2.603,0.58-3.926,0.75
					C121.638,80.688,121.635,80.688,121.632,80.688z M131.46,77.763l-0.688-1.369l0.159-0.081c1.925-0.98,3.977-2.24,6.276-3.851
					l0.88,1.255c-2.359,1.653-4.471,2.948-6.459,3.961L131.46,77.763z M111.544,80.224c-2.319-0.583-4.386-1.505-6.144-2.741
					c-0.332-0.233-0.656-0.472-0.973-0.718l0.939-1.211c0.297,0.231,0.603,0.457,0.915,0.676c1.604,1.127,3.5,1.971,5.637,2.508
					L111.544,80.224z M143.031,70.034l-0.94-1.209c0.929-0.723,1.853-1.453,2.771-2.178l0.113-0.089
					c1.098-0.867,2.133-1.686,3.142-2.465l0.936,1.212c-1.004,0.776-2.035,1.591-3.098,2.431l-0.143,0.113
					C144.89,68.577,143.963,69.309,143.031,70.034z M99.959,72.322c-1.64-2.107-2.903-4.436-3.754-6.922l1.449-0.497
					c0.797,2.326,1.979,4.505,3.515,6.478L99.959,72.322z M153.966,61.718l-0.866-1.264c2.479-1.697,4.604-2.952,6.69-3.948
					l0.661,1.382C158.438,58.849,156.377,60.066,153.966,61.718z M166.06,55.809l-0.408-1.477c1.914-0.528,3.834-0.935,5.483-1.274
					c0.264-0.054,0.527-0.114,0.792-0.175c0.469-0.106,0.898-0.203,1.285-0.26l0.224,1.516c-0.351,0.052-0.742,0.142-1.154,0.235
					c-0.289,0.066-0.563,0.128-0.838,0.185C169.819,54.893,167.929,55.293,166.06,55.809z M96.516,59.114l-1.529,0.088
					c-0.151-2.624,0.143-5.259,0.875-7.83l1.473,0.419C96.652,54.198,96.376,56.662,96.516,59.114z M99.415,46.136l-1.408-0.604
					c0.37-0.864,0.75-1.716,1.126-2.559c0.652-1.463,1.327-2.975,1.899-4.447l1.427,0.554c-0.585,1.508-1.267,3.037-1.927,4.517
					C100.159,44.434,99.782,45.279,99.415,46.136z M104.149,33.026l-1.517-0.218c0.083-0.572,0.136-1.145,0.158-1.701l0.015-0.35
					c0.114-2.557,0.032-3.913-0.057-4.601c-0.044-0.344-0.091-0.538-0.123-0.639l1.463-0.454c0.072,0.232,0.132,0.535,0.179,0.898
					c0.14,1.088,0.164,2.725,0.068,4.864l-0.015,0.346C104.297,31.777,104.24,32.402,104.149,33.026z"/>
			</g>
		</g>
		<g>
			<path style="fill:#231F20;" d="M148.723,80.387c-0.01,0.008-0.02,0.016-0.03,0.024C148.703,80.403,148.714,80.395,148.723,80.387
				c0.001-0.001,0.002-0.001,0.002-0.001C148.724,80.386,148.724,80.387,148.723,80.387z"/>
			<path style="opacity:0.4;fill:#494848;" d="M139.316,86.683c1.452-0.758,2.871-1.617,4.259-2.538
				c0.027-0.017,0.054-0.033,0.081-0.05l-0.001-0.003c1.729-1.151,3.409-2.398,5.038-3.681c0.01-0.008,0.02-0.016,0.03-0.024
				c0.001,0,0.001-0.001,0.002-0.001c0,0-0.001,0.001-0.001,0.001c0.567-0.447,1.129-0.896,1.684-1.348
				c-0.097,0.075-0.186,0.144-0.275,0.214c2.953-2.412,5.83-4.926,9.143-6.868c2.921-1.712,6.055-3.025,9.169-4.338
				c3.216-1.355,6.514-2.518,9.869-3.48c1.804-0.517,3.644-0.899,5.422-1.505c0.503-0.106,1.008-0.211,1.517-0.305
				c0.077,0-0.624-1.189-0.696-1.277c-0.334-0.414-0.693-0.81-1.033-1.219c-0.786-0.944-1.571-1.89-2.357-2.834
				c-1.572-1.889-3.147-3.775-4.739-5.647c-0.645-0.759-1.275-1.478-2.346-1.511c-1.158-0.035-2.286,0.307-3.409,0.538
				c-2.361,0.486-4.721,1.003-7.024,1.717c-0.418,0.13-0.821,0.279-1.228,0.422c-8.504,7.003-28.011,23.126-40.043,33.53
				c-4.117,3.56-8.874,6.082-13.653,7.876C116.545,95.251,126.717,93.74,139.316,86.683z"/>
			<path style="fill:#231F20;" d="M148.694,80.412c0,0,0.017-0.015,0.03-0.025c-0.01,0.008-0.021,0.016-0.031,0.024L148.694,80.412z
				"/>
		</g>
	</g>
	<path style="opacity:0.4;fill:#494848;" d="M97.431,16.859c-4.716-3.639-9.73-7.507-9.73-7.507
		c1.2,6.564-0.285,13.646-1.846,20.024c-1.509,6.167-4.31,12.135-4.516,18.517c-0.151,4.676-0.273,9.726,0.109,14.731
		C92.634,43.956,98.582,26.761,97.431,16.859z"/>
	<path style="fill:#999999;" d="M91.475,6.351c-0.719-0.515-1.547-0.924-2.466-1.218C89.007,5.13,89.003,5.128,89,5.125
		c-0.805-0.576-1.746-1.02-2.793-1.317c-0.198-0.057-0.399-0.107-0.608-0.153c-0.232-0.051-0.464-0.095-0.705-0.131
		c-0.125-0.019-0.253-0.033-0.383-0.046L84.428,3.47c-0.286-0.03-0.573-0.058-0.871-0.068c-0.017,0-0.056-0.001-0.058-0.002
		c-0.524-0.015-1.078,0.005-1.702,0.061c0,0-0.498,0.053-0.626,0.07c-0.45,0.058-0.907,0.134-1.376,0.231
		c0,0-0.025,0.005-0.038,0.008C66.924,6.459,47.05,23.985,30.285,47.4c-0.611,0.854-1.209,1.706-1.804,2.562l-0.539,0.784
		c-0.419,0.611-0.833,1.219-1.242,1.827l-0.564,0.841c-0.458,0.689-0.908,1.376-1.354,2.064l-0.327,0.502
		c-0.525,0.815-1.039,1.629-1.544,2.438l-0.583,0.946c-0.319,0.52-0.637,1.039-0.95,1.559l-0.637,1.064
		c-0.297,0.499-0.587,0.995-0.878,1.496l-0.59,1.015c-0.423,0.738-0.837,1.472-1.245,2.208l-0.386,0.703l-0.899,1.662l-0.658,1.243
		l-0.557,1.076c-0.737,1.433-1.426,2.818-2.068,4.161l-0.683,1.454c-0.232,0.501-0.458,0.997-0.678,1.49l-0.597,1.342l-0.38,0.88
		l-0.49,1.17c-0.175,0.421-0.348,0.842-0.537,1.315c-0.012,0.026-0.024,0.054-0.035,0.081l-0.529,1.35
		c-0.107,0.272-0.213,0.545-0.314,0.815c-0.002,0.005-0.006,0.016-0.006,0.016c-0.245,0.651-0.481,1.295-0.707,1.932
		c-0.001,0.003-0.19,0.549-0.281,0.816l-0.44,1.306c-0.11,0.339-0.217,0.673-0.323,1.012c-0.094,0.3-0.333,1.093-0.333,1.093
		c-0.095,0.316-0.19,0.631-0.278,0.942C6.725,93,6.608,93.429,6.495,93.857c-0.005,0.015-0.009,0.029-0.012,0.044
		c-0.095,0.36-0.187,0.719-0.275,1.073c-0.002,0.007-0.005,0.02-0.005,0.02c-0.111,0.452-0.22,0.9-0.32,1.343
		c-0.07,0.311-0.132,0.616-0.193,0.92c0,0-0.155,0.763-0.196,0.973c0,0.002-0.143,0.78-0.145,0.792
		c-0.066,0.388-0.125,0.77-0.182,1.148c-0.003,0.018-0.005,0.037-0.007,0.055c-0.138,0.942-0.243,1.861-0.31,2.733
		c-0.002,0.016-0.003,0.032-0.004,0.048c-0.028,0.372-0.052,0.74-0.068,1.1c-0.001,0.008-0.021,0.643-0.021,0.669
		c-0.007,0.341-0.008,0.675-0.004,1.009c0.012,0.79,0.049,1.487,0.116,2.127c0.046,0.453,0.108,0.892,0.182,1.314
		c0.02,0.119,0.089,0.451,0.089,0.451c0.063,0.318,0.133,0.628,0.213,0.932c0.04,0.15,0.08,0.301,0.123,0.446
		c0.096,0.327,0.204,0.643,0.32,0.947c0.23,0.61,0.505,1.19,0.816,1.727c0.163,0.279,0.335,0.548,0.52,0.805
		c0.189,0.263,0.397,0.505,0.648,0.79c0.062,0.074,0.125,0.146,0.234,0.261c0.071,0.075,0.142,0.15,0.217,0.222
		c0.329,0.315,0.64,0.576,0.951,0.799c0.72,0.515,1.548,0.924,2.465,1.218c0.003,0.002,0.006,0.005,0.01,0.007
		c2.053,1.47,4.675,2.011,7.796,1.609c0,0,0,0,0.001,0c4.273-0.551,9.402-2.849,15.181-6.789
		c11.176-6.911,24.204-20.315,35.744-36.774c2.682-3.825,5.254-7.79,7.63-11.762c7.922-12.777,13.722-25.449,16.334-35.682
		C97.166,17.351,96.175,9.716,91.475,6.351z"/>
	<g>
		<g>
			<path style="fill:#808080;" d="M88.794,11.71c-8.959-6.55-32.34,11.129-52.223,39.489c-19.883,28.359-28.739,56.659-19.78,63.21
				c8.959,6.55,32.34-11.129,52.223-39.489C88.897,46.56,97.752,18.26,88.794,11.71z M30.651,100.708
				c-3.381,4.823-7.357,7.829-8.881,6.715c-1.524-1.114-0.017-5.926,3.364-10.749c3.381-4.823,7.357-7.829,8.881-6.715
				C35.539,91.073,34.033,95.885,30.651,100.708z M40.07,53.574c2.614-3.729,5.688-6.054,6.866-5.192
				c1.178,0.861,0.014,4.582-2.601,8.311c-2.614,3.729-5.688,6.054-6.866,5.192C36.292,61.024,37.456,57.303,40.07,53.574z
				 M41.264,79.62c-2.872-2.1-0.033-11.172,6.341-20.264c6.374-9.091,13.87-14.759,16.742-12.659
				c2.872,2.1,0.033,11.172-6.341,20.264C51.631,76.052,44.136,81.72,41.264,79.62z M65.114,73.058
				c-2.614,3.729-5.689,6.053-6.866,5.192c-1.178-0.861-0.013-4.582,2.601-8.311c2.614-3.729,5.688-6.053,6.866-5.192
				C68.893,65.608,67.729,69.329,65.114,73.058z M81.569,27.966c-3.381,4.823-7.357,7.829-8.881,6.715
				c-1.523-1.114-0.017-5.926,3.364-10.749c3.381-4.823,7.357-7.829,8.881-6.715C86.456,18.331,84.95,23.144,81.569,27.966z"/>
		</g>
		<g>
			<path style="fill:#B3B3B3;" d="M90.506,7.703c-9.638-6.901-34.887,11.854-56.394,41.891
				c-21.507,30.037-31.128,59.981-21.49,66.883c9.638,6.901,34.887-11.854,56.394-41.891C90.523,44.549,100.145,14.604,90.506,7.703
				z M27.598,101.954c-3.657,5.108-7.951,8.297-9.59,7.124c-1.639-1.174-0.003-6.266,3.655-11.374
				c3.657-5.108,7.951-8.297,9.59-7.124C32.892,91.754,31.256,96.846,27.598,101.954z M37.878,52.096
				c2.828-3.949,6.147-6.415,7.415-5.508c1.267,0.907,0.002,4.845-2.826,8.794c-2.828,3.949-6.148,6.415-7.415,5.508
				C33.785,59.982,35.05,56.045,37.878,52.096z M39.094,79.63c-3.09-2.212-0.005-11.812,6.889-21.441
				c6.895-9.629,14.989-15.642,18.079-13.429c3.09,2.212,0.006,11.812-6.889,21.441C50.278,75.83,42.184,81.842,39.094,79.63z
				 M64.818,72.628c-2.828,3.949-6.147,6.415-7.415,5.508c-1.267-0.907-0.002-4.845,2.826-8.794c2.828-3.95,6.148-6.415,7.415-5.508
				C68.911,64.741,67.646,68.678,64.818,72.628z M82.675,24.91c-3.657,5.108-7.951,8.297-9.59,7.124
				c-1.639-1.174-0.003-6.266,3.654-11.374c3.657-5.108,7.951-8.297,9.59-7.124C87.968,14.71,86.332,19.802,82.675,24.91z"/>
		</g>
		<g>
			<path style="fill:#E6E6E6;" d="M88.032,6.477c-9.639-6.901-34.887,11.854-56.394,41.891
				c-21.507,30.037-31.128,59.981-21.49,66.883c9.638,6.901,34.887-11.854,56.394-41.891C88.048,43.323,97.67,13.379,88.032,6.477z
				 M25.124,100.729c-3.657,5.108-7.951,8.297-9.59,7.124c-1.639-1.174-0.003-6.266,3.654-11.374s7.951-8.297,9.59-7.124
				C30.417,90.529,28.781,95.621,25.124,100.729z M35.403,50.87c2.828-3.949,6.148-6.415,7.415-5.508s0.002,4.845-2.826,8.794
				c-2.828,3.949-6.148,6.415-7.415,5.508C31.31,58.757,32.575,54.82,35.403,50.87z M36.619,78.405
				c-3.09-2.213-0.005-11.812,6.889-21.441c6.895-9.629,14.989-15.642,18.079-13.43c3.09,2.213,0.005,11.812-6.889,21.441
				C47.803,74.604,39.709,80.617,36.619,78.405z M62.344,71.402c-2.828,3.949-6.148,6.415-7.415,5.508
				c-1.267-0.907-0.002-4.845,2.826-8.794c2.828-3.949,6.148-6.415,7.415-5.508C66.437,63.516,65.172,67.453,62.344,71.402z
				 M80.2,23.684c-3.657,5.108-7.951,8.297-9.59,7.124c-1.639-1.174-0.003-6.266,3.655-11.374c3.657-5.108,7.951-8.297,9.59-7.124
				C85.494,13.484,83.857,18.576,80.2,23.684z"/>
		</g>
		<path style="opacity:0.3;fill:#E6E6E6;" d="M88.032,6.477c-0.277-0.198-0.571-0.37-0.873-0.526
			c-0.113-0.058-0.233-0.105-0.349-0.158c-0.191-0.086-0.385-0.169-0.585-0.24c-0.156-0.055-0.316-0.102-0.478-0.148
			c-0.165-0.047-0.332-0.088-0.503-0.125c-0.195-0.042-0.392-0.082-0.595-0.111c-0.129-0.019-0.263-0.031-0.395-0.045
			c-0.248-0.026-0.495-0.052-0.753-0.06c-0.002,0-0.004,0-0.007,0c-1.047-0.032-2.174,0.08-3.37,0.328c0,0,0,0,0,0
			c1.956-0.089,3.548,0.223,4.639,1.004c7.411,5.306,0.013,28.33-16.523,51.425c-1.137,1.588-2.289,3.131-3.448,4.634
			c0.138,0.029,0.268,0.074,0.377,0.152c1.267,0.907,0.002,4.844-2.826,8.794c-2.828,3.949-6.148,6.415-7.415,5.508
			c-0.546-0.391-0.62-1.348-0.302-2.624c-9.681,10.049-18.998,16.33-25.22,16.807c-0.028,2.194-1.613,5.907-4.283,9.636
			c-3.657,5.108-7.951,8.297-9.59,7.124c-1.639-1.174-0.003-6.266,3.654-11.374c1.997-2.79,4.182-5,6.023-6.247
			c-0.11-0.067-0.226-0.125-0.331-0.2c-4.18-2.993-7.018-11.191-5.731-21.913c-0.387,0.704-0.765,1.404-1.136,2.101
			c-0.235,0.443-0.462,0.882-0.691,1.323c-0.182,0.351-0.365,0.701-0.543,1.05c-0.224,0.438-0.443,0.873-0.659,1.308
			c-0.173,0.345-0.342,0.689-0.51,1.033c-0.211,0.431-0.422,0.862-0.626,1.289c-0.17,0.356-0.333,0.708-0.498,1.061
			c-0.337,0.721-0.665,1.437-0.982,2.147c-0.16,0.357-0.321,0.716-0.476,1.07c-0.176,0.403-0.344,0.801-0.513,1.2
			c-0.146,0.346-0.292,0.69-0.433,1.033c-0.161,0.39-0.321,0.779-0.475,1.165c-0.142,0.355-0.279,0.707-0.416,1.059
			c-0.142,0.365-0.287,0.732-0.423,1.093c-0.241,0.64-0.473,1.274-0.694,1.901c-0.118,0.335-0.228,0.663-0.341,0.994
			c-0.124,0.364-0.248,0.727-0.365,1.086c-0.109,0.333-0.214,0.663-0.317,0.992c-0.112,0.359-0.221,0.714-0.326,1.067
			c-0.093,0.31-0.186,0.621-0.274,0.927c-0.125,0.44-0.242,0.872-0.356,1.303c-0.096,0.36-0.187,0.717-0.275,1.071
			c-0.109,0.439-0.215,0.877-0.311,1.306c-0.059,0.263-0.112,0.521-0.166,0.78c-0.075,0.358-0.147,0.713-0.213,1.063
			c-0.048,0.255-0.095,0.509-0.139,0.76c-0.065,0.376-0.122,0.745-0.176,1.111c-0.03,0.204-0.064,0.411-0.091,0.612
			c-0.072,0.538-0.131,1.066-0.178,1.582c-0.016,0.177-0.025,0.347-0.039,0.522c-0.027,0.362-0.051,0.719-0.066,1.069
			c-0.009,0.198-0.014,0.392-0.018,0.586c-0.008,0.331-0.008,0.656-0.004,0.975c0.002,0.172,0.003,0.346,0.009,0.515
			c0.015,0.44,0.04,0.87,0.079,1.286c0.006,0.06,0.012,0.12,0.018,0.18c0.043,0.415,0.1,0.815,0.167,1.204
			c0.024,0.139,0.053,0.272,0.08,0.408c0.057,0.284,0.119,0.561,0.19,0.83c0.035,0.135,0.071,0.269,0.11,0.4
			c0.085,0.286,0.179,0.561,0.28,0.829c0.034,0.089,0.063,0.183,0.099,0.27c0.141,0.344,0.296,0.673,0.466,0.985
			c0.042,0.076,0.089,0.146,0.132,0.22c0.136,0.234,0.28,0.46,0.434,0.674c0.067,0.093,0.137,0.183,0.208,0.273
			c0.151,0.191,0.31,0.373,0.476,0.546c0.072,0.075,0.141,0.152,0.216,0.224c0.243,0.232,0.496,0.452,0.769,0.648
			c9.638,6.901,34.887-11.854,56.394-41.891C88.048,43.323,97.67,13.379,88.032,6.477z"/>
		<path style="opacity:0.45;fill:#E6E6E6;" d="M32.129,51.153c22.809-29.06,48.86-46.685,58.185-39.366
			c0.457,0.359,0.851,0.786,1.211,1.248c-0.464-2.954-1.603-5.205-3.494-6.559c-9.639-6.901-34.887,11.854-56.394,41.891
			c-8.189,11.437-14.649,22.857-18.984,33C17.386,71.923,23.998,61.513,32.129,51.153z"/>
	</g>
</g>
</svg>
